# Blender v2.77 (sub 0) OBJ File: 'ArenaPlane.blend'
# www.blender.org
mtllib ArenaPlane.mtl
o Plane
v -0.585862 0.062473 0.876805
v -0.403549 0.062473 0.974254
v -0.205727 0.062473 1.034262
v 0.000000 0.062473 1.054524
v 0.205728 0.062473 1.034262
v 0.403549 0.062473 0.974253
v 0.585863 0.062473 0.876805
v 0.745662 0.062473 0.745661
v 0.876805 0.062473 0.585862
v 0.974254 0.062473 0.403548
v 1.034262 0.062473 0.205727
v 1.054524 0.062473 -0.000001
v 1.034262 0.062473 -0.205728
v 0.974253 0.062473 -0.403550
v 0.876804 0.062473 -0.585863
v 0.745660 0.062473 -0.745662
v 0.585861 0.062473 -0.876805
v 0.403548 0.062473 -0.974253
v 0.205726 0.062473 -1.034262
v 0.000000 0.062473 -1.054524
v -0.205727 0.062473 -1.034261
v -0.403549 0.062473 -0.974253
v -0.585862 0.062473 -0.876804
v -0.745661 0.062473 -0.745661
v -0.876805 0.062473 -0.585862
v -0.974253 0.062473 -0.403549
v -1.034261 0.062473 -0.205727
v -1.054524 0.062473 0.000000
v -1.034262 0.062473 0.205728
v -0.974253 0.062473 0.403549
v -0.876805 0.062473 0.585862
v -0.745661 0.062473 0.745661
vt 0.5000 1.0000
vt 0.5975 0.9904
vt 0.6913 0.9619
vt 0.7778 0.9157
vt 0.8536 0.8536
vt 0.9157 0.7778
vt 0.9619 0.6913
vt 0.9904 0.5975
vt 1.0000 0.5000
vt 0.9904 0.4025
vt 0.9619 0.3087
vt 0.9157 0.2222
vt 0.8536 0.1464
vt 0.7778 0.0843
vt 0.6913 0.0381
vt 0.5975 0.0096
vt 0.5000 0.0000
vt 0.4025 0.0096
vt 0.3087 0.0381
vt 0.2222 0.0843
vt 0.1464 0.1464
vt 0.0843 0.2222
vt 0.0381 0.3087
vt 0.0096 0.4025
vt 0.0000 0.5000
vt 0.0096 0.5975
vt 0.0381 0.6913
vt 0.0843 0.7778
vt 0.1464 0.8536
vt 0.2222 0.9157
vt 0.3087 0.9619
vt 0.4025 0.9904
vn 0.0000 1.0000 -0.0000
usemtl None
s off
f 1/1/1 2/2/1 3/3/1 4/4/1 5/5/1 6/6/1 7/7/1 8/8/1 9/9/1 10/10/1 11/11/1 12/12/1 13/13/1 14/14/1 15/15/1 16/16/1 17/17/1 18/18/1 19/19/1 20/20/1 21/21/1 22/22/1 23/23/1 24/24/1 25/25/1 26/26/1 27/27/1 28/28/1 29/29/1 30/30/1 31/31/1 32/32/1
