# Blender v2.77 (sub 0) OBJ File: 'ArenaCollider.blend'
# www.blender.org
mtllib ArenaCollider.mtl
o Circle.001
v 0.000000 0.000000 -1.054166
v -0.205658 0.000000 -1.033911
v -0.403412 0.000000 -0.973923
v -0.585663 0.000000 -0.876507
v -0.745408 0.000000 -0.745408
v -0.876507 0.000000 -0.585663
v -0.973923 0.000000 -0.403412
v -1.033911 0.000000 -0.205658
v -1.054166 0.000000 -0.000000
v -1.033911 0.000000 0.205658
v -0.973923 0.000000 0.403412
v -0.876507 0.000000 0.585663
v -0.745408 0.000000 0.745408
v -0.585663 0.000000 0.876507
v -0.403412 0.000000 0.973923
v -0.205657 0.000000 1.033911
v 0.000000 0.000000 1.054166
v 0.205658 0.000000 1.033911
v 0.403412 0.000000 0.973923
v 0.585664 0.000000 0.876507
v 0.745409 0.000000 0.745408
v 0.876508 0.000000 0.585663
v 0.973923 0.000000 0.403411
v 1.033911 0.000000 0.205657
v 1.054166 0.000000 -0.000001
v 1.033911 0.000000 -0.205659
v 0.973922 0.000000 -0.403413
v 0.876507 0.000000 -0.585665
v 0.745407 0.000000 -0.745409
v 0.585662 0.000000 -0.876508
v 0.403411 0.000000 -0.973923
v 0.205656 0.000000 -1.033911
v 0.000000 0.180811 -1.054166
v -0.205658 0.180811 -1.033911
v -0.403412 0.180811 -0.973923
v -0.585663 0.180811 -0.876507
v -0.745408 0.180811 -0.745408
v -0.876507 0.180811 -0.585663
v -0.973923 0.180811 -0.403412
v -1.033911 0.180811 -0.205658
v -1.054166 0.180811 -0.000000
v -1.033911 0.180811 0.205658
v -0.973923 0.180811 0.403412
v -0.876507 0.180811 0.585663
v -0.745408 0.180811 0.745408
v -0.585663 0.180811 0.876507
v -0.403412 0.180811 0.973923
v -0.205657 0.180811 1.033911
v 0.000000 0.180811 1.054166
v 0.205658 0.180811 1.033911
v 0.403412 0.180811 0.973923
v 0.585664 0.180811 0.876507
v 0.745409 0.180811 0.745408
v 0.876508 0.180811 0.585663
v 0.973923 0.180811 0.403411
v 1.033911 0.180811 0.205657
v 1.054166 0.180811 -0.000001
v 1.033911 0.180811 -0.205659
v 0.973922 0.180811 -0.403413
v 0.876507 0.180811 -0.585665
v 0.745407 0.180811 -0.745409
v 0.585662 0.180811 -0.876508
v 0.403411 0.180811 -0.973923
v 0.205656 0.180811 -1.033911
v 0.000000 -0.001646 -1.073363
v -0.209403 -0.001646 -1.052739
v -0.410758 -0.001646 -0.991659
v -0.596329 -0.001646 -0.892469
v -0.758983 -0.001646 -0.758983
v -0.892469 -0.001646 -0.596329
v -0.991659 -0.001646 -0.410758
v -1.052739 -0.001646 -0.209403
v -1.073364 -0.001646 -0.000000
v -1.052739 -0.001646 0.209403
v -0.991659 -0.001646 0.410758
v -0.892469 -0.001646 0.596329
v -0.758983 -0.001646 0.758983
v -0.596329 -0.001646 0.892469
v -0.410758 -0.001646 0.991659
v -0.209403 -0.001646 1.052739
v 0.000000 -0.001646 1.073364
v 0.209403 -0.001646 1.052739
v 0.410759 -0.001646 0.991658
v 0.596329 -0.001646 0.892469
v 0.758983 -0.001646 0.758982
v 0.892470 -0.001646 0.596328
v 0.991659 -0.001646 0.410758
v 1.052739 -0.001646 0.209402
v 1.073364 -0.001646 -0.000001
v 1.052739 -0.001646 -0.209404
v 0.991658 -0.001646 -0.410760
v 0.892468 -0.001646 -0.596330
v 0.758982 -0.001646 -0.758984
v 0.596328 -0.001646 -0.892470
v 0.410757 -0.001646 -0.991659
v 0.209401 -0.001646 -1.052739
v 0.000000 0.182458 -1.073363
v -0.209403 0.182458 -1.052739
v -0.410758 0.182458 -0.991659
v -0.596329 0.182458 -0.892469
v -0.758983 0.182458 -0.758983
v -0.892469 0.182458 -0.596329
v -0.991659 0.182458 -0.410758
v -1.052739 0.182458 -0.209403
v -1.073364 0.182458 -0.000000
v -1.052739 0.182458 0.209403
v -0.991659 0.182458 0.410758
v -0.892469 0.182458 0.596329
v -0.758983 0.182458 0.758983
v -0.596329 0.182458 0.892469
v -0.410758 0.182458 0.991659
v -0.209403 0.182458 1.052739
v 0.000000 0.182458 1.073364
v 0.209403 0.182458 1.052739
v 0.410759 0.182458 0.991658
v 0.596329 0.182458 0.892469
v 0.758983 0.182458 0.758982
v 0.892470 0.182458 0.596328
v 0.991659 0.182458 0.410758
v 1.052739 0.182458 0.209402
v 1.073364 0.182458 -0.000001
v 1.052739 0.182458 -0.209404
v 0.991658 0.182458 -0.410760
v 0.892468 0.182458 -0.596330
v 0.758982 0.182458 -0.758984
v 0.596328 0.182458 -0.892470
v 0.410757 0.182458 -0.991659
v 0.209401 0.182458 -1.052739
vt 0.7500 0.8842
vt 1.0000 1.0000
vt 0.7500 1.0000
vt 0.5000 0.3811
vt 0.2500 0.2445
vt 0.5000 0.2445
vt 0.5000 0.9015
vt 0.7500 0.9015
vt 0.2500 0.1158
vt 0.5000 0.1158
vt 0.5000 0.7857
vt 0.7500 0.7857
vt 0.2500 0.0000
vt 0.5000 0.0000
vt 0.5000 0.6570
vt 0.7500 0.6570
vt 0.2500 1.0000
vt 0.0000 0.9015
vt 0.2500 0.9015
vt 0.5000 0.5204
vt 0.7500 0.5204
vt 0.0000 0.7857
vt 0.2500 0.7857
vt 0.5000 0.3811
vt 0.7500 0.3811
vt 0.0000 0.6570
vt 0.2500 0.6570
vt 0.5000 0.2445
vt 0.7500 0.2445
vt 0.0000 0.5204
vt 0.2500 0.5204
vt 0.5000 0.1158
vt 0.7500 0.1158
vt 0.0000 0.3811
vt 0.2500 0.3811
vt 0.5000 0.0000
vt 0.7500 0.0000
vt 0.7500 0.2143
vt 1.0000 0.3430
vt 0.7500 0.3430
vt 0.0000 0.2445
vt 0.2500 0.2445
vt 0.5000 1.0000
vt 0.2500 0.9015
vt 0.5000 0.9015
vt 1.0000 0.4796
vt 0.7500 0.4796
vt 0.0000 0.1158
vt 0.2500 0.1158
vt 0.2500 0.7857
vt 0.5000 0.7857
vt 1.0000 0.6189
vt 0.7500 0.6189
vt 0.0000 0.0000
vt 0.2500 0.0000
vt 0.2500 0.6570
vt 0.5000 0.6570
vt 1.0000 0.7555
vt 0.7500 0.7555
vt 0.7500 0.0000
vt 1.0000 0.0985
vt 0.7500 0.0985
vt 0.2500 0.5204
vt 0.5000 0.5204
vt 1.0000 0.8842
vt 1.0000 0.2143
vt 0.2500 0.3811
vt 0.5000 0.2445
vt 0.2500 1.0000
vt 0.2500 0.9015
vt 0.5000 0.1158
vt 0.5000 0.0000
vt 0.2500 0.7857
vt 0.2500 0.9015
vt 0.2500 0.5204
vt 0.2500 0.7857
vt 0.2500 0.3811
vt 0.2500 0.6570
vt 0.2500 0.2445
vt 0.2500 0.5204
vt 0.2500 0.1158
vt 0.2500 0.3811
vt 0.7500 0.3430
vt 0.2500 0.2445
vt 0.0000 1.0000
vt 0.0000 0.9015
vt 0.2500 0.1158
vt 0.7500 0.4796
vt 0.2500 0.0000
vt 0.7500 0.7555
vt 0.0000 0.7857
vt 0.7500 0.0985
vt 0.7500 0.8842
vt 0.0000 0.5204
vt 0.7500 0.2143
vt 0.0000 0.3811
vt 1.0000 0.2143
vt 0.7500 0.9015
vt 0.0000 0.2445
vt 1.0000 0.3430
vt 1.0000 0.6189
vt 0.7500 0.6570
vt 0.0000 0.0000
vt 1.0000 0.7555
vt 0.7500 0.5204
vt 1.0000 0.0000
vt 1.0000 0.0000
vt 0.7500 0.3811
vt 1.0000 0.8842
vt 0.5000 1.0000
vt 0.5000 1.0000
vt 0.7500 0.2445
vt 0.5000 0.9015
vt 0.7500 0.1158
vt 0.5000 0.7857
vt 0.5000 0.9015
vt 0.5000 0.6570
vt 0.5000 0.7857
vt 0.5000 0.5204
vt 0.5000 0.3811
vt 0.5000 0.5204
vt 0.5000 0.2445
vt 0.5000 0.3811
vt 0.5000 0.1158
vt 0.2500 1.0000
vt 0.2500 0.6570
vt 0.2500 1.0000
vt 0.2500 0.0000
vt 0.0000 1.0000
vt 0.7500 0.6189
vt 0.0000 0.6570
vt 0.7500 0.0000
vt 0.7500 1.0000
vt 1.0000 0.4796
vt 0.7500 0.7857
vt 0.0000 0.1158
vt 1.0000 0.0985
vt 1.0000 1.0000
vt 0.7500 0.0000
vt 0.5000 1.0000
vt 0.5000 0.6570
vt 0.5000 0.0000
vn 0.5954 -0.6979 0.3979
vn 0.6616 0.6979 0.2741
vn 0.6616 -0.6979 0.2741
vn -0.3979 -0.6979 -0.5954
vn -0.5064 0.6979 -0.5064
vn -0.5064 -0.6979 -0.5064
vn 0.7024 0.6979 0.1397
vn 0.7024 -0.6979 0.1397
vn -0.5954 0.6979 -0.3979
vn -0.5954 -0.6979 -0.3979
vn 0.7161 0.6979 0.0000
vn 0.7161 -0.6979 0.0000
vn -0.6616 0.6979 -0.2741
vn -0.6616 -0.6979 -0.2741
vn 0.7024 0.6979 -0.1397
vn 0.7024 -0.6979 -0.1397
vn -0.7024 0.6979 -0.1397
vn -0.7024 -0.6979 -0.1397
vn 0.6616 0.6979 -0.2741
vn 0.6616 -0.6979 -0.2741
vn -0.7161 0.6979 0.0000
vn -0.7161 -0.6979 0.0000
vn 0.5954 0.6979 -0.3979
vn 0.5954 -0.6979 -0.3979
vn -0.7024 0.6979 0.1397
vn -0.7024 -0.6979 0.1397
vn 0.5064 0.6979 -0.5064
vn 0.5064 -0.6979 -0.5064
vn -0.6616 0.6979 0.2741
vn -0.6616 -0.6979 0.2741
vn 0.3979 0.6979 -0.5954
vn 0.3979 -0.6979 -0.5954
vn -0.5954 0.6979 0.3979
vn -0.5954 -0.6979 0.3979
vn 0.2741 0.6979 -0.6616
vn 0.2741 -0.6979 -0.6616
vn 0.0000 -0.6979 0.7161
vn 0.1397 0.6979 0.7024
vn 0.1397 -0.6979 0.7024
vn -0.5064 0.6979 0.5064
vn -0.5064 -0.6979 0.5064
vn 0.1397 0.6979 -0.7024
vn 0.1397 -0.6979 -0.7024
vn 0.2741 0.6979 0.6616
vn 0.2741 -0.6979 0.6616
vn -0.3979 0.6979 0.5954
vn -0.3979 -0.6979 0.5954
vn 0.0000 0.6979 -0.7161
vn 0.0000 -0.6979 -0.7161
vn 0.3979 0.6979 0.5954
vn 0.3979 -0.6979 0.5954
vn -0.2741 0.6979 0.6616
vn -0.2741 -0.6979 0.6616
vn -0.1397 0.6979 -0.7024
vn -0.1397 -0.6979 -0.7024
vn 0.5064 0.6979 0.5064
vn 0.5064 -0.6979 0.5064
vn -0.1397 0.6979 0.7024
vn -0.1397 -0.6979 0.7024
vn -0.2741 0.6979 -0.6616
vn -0.2741 -0.6979 -0.6616
vn 0.5954 0.6979 0.3979
vn 0.0000 0.6979 0.7161
vn -0.3979 0.6979 -0.5954
vn -0.0604 -0.9963 -0.0604
vn 0.0167 0.9963 -0.0838
vn -0.0710 -0.9963 -0.0475
vn -0.0789 -0.9963 -0.0327
vn 0.0000 0.9963 -0.0854
vn -0.0838 -0.9963 -0.0167
vn -0.0327 0.9963 -0.0789
vn -0.0854 -0.9963 0.0000
vn -0.0475 0.9963 -0.0710
vn -0.0838 -0.9963 0.0167
vn -0.0604 0.9963 -0.0604
vn -0.0789 -0.9963 0.0327
vn -0.0710 0.9963 -0.0475
vn -0.0710 -0.9963 0.0475
vn 0.0167 -0.9963 0.0838
vn -0.0604 -0.9963 0.0604
vn -0.0838 0.9963 -0.0167
vn -0.0475 -0.9963 0.0710
vn 0.0327 -0.9963 0.0789
vn -0.0327 -0.9963 0.0789
vn 0.0604 -0.9963 0.0604
vn -0.0854 0.9963 0.0000
vn -0.0167 -0.9963 0.0838
vn 0.0710 -0.9963 0.0475
vn -0.0789 0.9963 0.0327
vn 0.0000 -0.9963 0.0854
vn -0.0710 0.9963 0.0475
vn 0.0000 0.9963 0.0854
vn 0.0838 -0.9963 0.0167
vn -0.0604 0.9963 0.0604
vn 0.0167 0.9963 0.0838
vn 0.0475 0.9963 0.0710
vn 0.0838 -0.9963 -0.0167
vn -0.0327 0.9963 0.0789
vn 0.0604 0.9963 0.0604
vn 0.0789 -0.9963 -0.0327
vn 0.0710 -0.9963 -0.0475
vn 0.0710 0.9963 0.0475
vn 0.0789 0.9963 0.0327
vn 0.0604 -0.9963 -0.0604
vn 0.0838 0.9963 0.0167
vn 0.0475 -0.9963 -0.0710
vn 0.0854 0.9963 0.0000
vn 0.0167 -0.9963 -0.0838
vn 0.0838 0.9963 -0.0167
vn 0.0000 -0.9963 -0.0854
vn 0.0789 0.9963 -0.0327
vn 0.0710 0.9963 -0.0475
vn -0.0327 -0.9963 -0.0789
vn 0.0604 0.9963 -0.0604
vn -0.0475 -0.9963 -0.0710
vn 0.0475 0.9963 -0.0710
vn 0.0327 0.9963 -0.0789
vn -0.0167 0.9963 -0.0838
vn -0.0789 0.9963 -0.0327
vn 0.0475 -0.9963 0.0710
vn -0.0838 0.9963 0.0167
vn 0.0789 -0.9963 0.0327
vn 0.0327 0.9963 0.0789
vn 0.0854 -0.9963 0.0000
vn -0.0475 0.9963 0.0710
vn -0.0167 0.9963 0.0838
vn 0.0327 -0.9963 -0.0789
vn -0.0167 -0.9963 -0.0838
usemtl None
s 1
f 6/1/1 39/2/2 7/3/3
f 20/4/4 53/5/5 21/6/6
f 7/3/3 40/7/7 8/8/8
f 21/6/6 54/9/9 22/10/10
f 8/8/8 41/11/11 9/12/12
f 22/10/10 55/13/13 23/14/14
f 9/12/12 42/15/15 10/16/16
f 23/17/14 56/18/17 24/19/18
f 10/16/16 43/20/19 11/21/20
f 24/19/18 57/22/21 25/23/22
f 11/21/20 44/24/23 12/25/24
f 25/23/22 58/26/25 26/27/26
f 12/25/24 45/28/27 13/29/28
f 26/27/26 59/30/29 27/31/30
f 13/29/28 46/32/31 14/33/32
f 27/31/30 60/34/33 28/35/34
f 14/33/32 47/36/35 15/37/36
f 1/38/37 34/39/38 2/40/39
f 28/35/34 61/41/40 29/42/41
f 15/43/36 48/44/42 16/45/43
f 2/40/39 35/46/44 3/47/45
f 29/42/41 62/48/46 30/49/47
f 16/45/43 49/50/48 17/51/49
f 3/47/45 36/52/50 4/53/51
f 30/49/47 63/54/52 31/55/53
f 17/51/49 50/56/54 18/57/55
f 4/53/51 37/58/56 5/59/57
f 31/60/53 64/61/58 32/62/59
f 18/57/55 51/63/60 19/64/61
f 5/59/57 38/65/62 6/1/1
f 32/62/59 33/66/63 1/38/37
f 19/64/61 52/67/64 20/4/4
f 85/68/65 20/4/4 21/6/6
f 47/69/35 112/70/66 48/44/42
f 86/71/67 21/6/6 22/10/10
f 112/70/66 49/50/48 48/44/42
f 87/72/68 22/10/10 23/14/14
f 113/73/69 50/56/54 49/50/48
f 88/74/70 23/17/14 24/19/18
f 50/56/54 115/75/71 51/63/60
f 89/76/72 24/19/18 25/23/22
f 51/63/60 116/77/73 52/67/64
f 90/78/74 25/23/22 26/27/26
f 52/67/64 117/79/75 53/5/5
f 91/80/76 26/27/26 27/31/30
f 53/5/5 118/81/77 54/9/9
f 92/82/78 27/31/30 28/35/34
f 66/83/79 1/38/37 2/40/39
f 118/81/77 55/13/13 54/9/9
f 93/84/80 28/35/34 29/42/41
f 3/47/45 66/83/79 2/40/39
f 55/85/13 120/86/81 56/18/17
f 94/87/82 29/42/41 30/49/47
f 4/53/51 67/88/83 3/47/45
f 120/86/81 57/22/21 56/18/17
f 95/89/84 30/49/47 31/55/53
f 69/90/85 4/53/51 5/59/57
f 121/91/86 58/26/25 57/22/21
f 96/92/87 31/60/53 32/62/59
f 70/93/88 5/59/57 6/1/1
f 58/26/25 123/94/89 59/30/29
f 65/95/90 32/62/59 1/38/37
f 7/3/3 70/93/88 6/1/1
f 59/30/29 124/96/91 60/34/33
f 97/97/92 34/39/38 33/66/63
f 72/98/93 7/3/3 8/8/8
f 60/34/33 125/99/94 61/41/40
f 98/100/95 35/46/44 34/39/38
f 9/12/12 72/98/93 8/8/8
f 125/99/94 62/48/46 61/41/40
f 35/46/44 100/101/96 36/52/50
f 74/102/97 9/12/12 10/16/16
f 62/48/46 127/103/98 63/54/52
f 36/52/50 101/104/99 37/58/56
f 75/105/100 10/16/16 11/21/20
f 127/106/98 64/61/58 63/107/52
f 101/104/99 38/65/62 37/58/56
f 76/108/101 11/21/20 12/25/24
f 64/61/58 97/97/92 33/66/63
f 102/109/102 39/2/2 38/65/62
f 13/29/28 76/108/101 12/25/24
f 103/110/103 40/7/7 39/111/2
f 14/33/32 77/112/104 13/29/28
f 104/113/105 41/11/11 40/7/7
f 15/37/36 78/114/106 14/33/32
f 105/115/107 42/15/15 41/11/11
f 80/116/108 15/43/36 16/45/43
f 106/117/109 43/20/19 42/15/15
f 81/118/110 16/45/43 17/51/49
f 107/119/111 44/24/23 43/20/19
f 18/57/55 81/118/110 17/51/49
f 108/120/112 45/28/27 44/24/23
f 83/121/113 18/57/55 19/64/61
f 109/122/114 46/32/31 45/28/27
f 84/123/115 19/64/61 20/4/4
f 110/124/116 47/36/35 46/32/31
f 6/1/1 38/65/62 39/2/2
f 20/4/4 52/67/64 53/5/5
f 7/3/3 39/111/2 40/7/7
f 21/6/6 53/5/5 54/9/9
f 8/8/8 40/7/7 41/11/11
f 22/10/10 54/9/9 55/13/13
f 9/12/12 41/11/11 42/15/15
f 23/17/14 55/85/13 56/18/17
f 10/16/16 42/15/15 43/20/19
f 24/19/18 56/18/17 57/22/21
f 11/21/20 43/20/19 44/24/23
f 25/23/22 57/22/21 58/26/25
f 12/25/24 44/24/23 45/28/27
f 26/27/26 58/26/25 59/30/29
f 13/29/28 45/28/27 46/32/31
f 27/31/30 59/30/29 60/34/33
f 14/33/32 46/32/31 47/36/35
f 1/38/37 33/66/63 34/39/38
f 28/35/34 60/34/33 61/41/40
f 15/43/36 47/69/35 48/44/42
f 2/40/39 34/39/38 35/46/44
f 29/42/41 61/41/40 62/48/46
f 16/45/43 48/44/42 49/50/48
f 3/47/45 35/46/44 36/52/50
f 30/49/47 62/48/46 63/54/52
f 17/51/49 49/50/48 50/56/54
f 4/53/51 36/52/50 37/58/56
f 31/60/53 63/107/52 64/61/58
f 18/57/55 50/56/54 51/63/60
f 5/59/57 37/58/56 38/65/62
f 32/62/59 64/61/58 33/66/63
f 19/64/61 51/63/60 52/67/64
f 85/68/65 84/123/115 20/4/4
f 47/69/35 111/125/117 112/70/66
f 86/71/67 85/68/65 21/6/6
f 112/70/66 113/73/69 49/50/48
f 87/72/68 86/71/67 22/10/10
f 113/73/69 114/126/118 50/56/54
f 88/74/70 87/127/68 23/17/14
f 50/56/54 114/126/118 115/75/71
f 89/76/72 88/74/70 24/19/18
f 51/63/60 115/75/71 116/77/73
f 90/78/74 89/76/72 25/23/22
f 52/67/64 116/77/73 117/79/75
f 91/80/76 90/78/74 26/27/26
f 53/5/5 117/79/75 118/81/77
f 92/82/78 91/80/76 27/31/30
f 66/83/79 65/95/90 1/38/37
f 118/81/77 119/128/119 55/13/13
f 93/84/80 92/82/78 28/35/34
f 3/47/45 67/88/83 66/83/79
f 55/85/13 119/129/119 120/86/81
f 94/87/82 93/84/80 29/42/41
f 4/53/51 68/130/120 67/88/83
f 120/86/81 121/91/86 57/22/21
f 95/89/84 94/87/82 30/49/47
f 69/90/85 68/130/120 4/53/51
f 121/91/86 122/131/121 58/26/25
f 96/92/87 95/132/84 31/60/53
f 70/93/88 69/90/85 5/59/57
f 58/26/25 122/131/121 123/94/89
f 65/95/90 96/92/87 32/62/59
f 7/3/3 71/133/122 70/93/88
f 59/30/29 123/94/89 124/96/91
f 97/97/92 98/100/95 34/39/38
f 72/98/93 71/133/122 7/3/3
f 60/34/33 124/96/91 125/99/94
f 98/100/95 99/134/123 35/46/44
f 9/12/12 73/135/124 72/98/93
f 125/99/94 126/136/125 62/48/46
f 35/46/44 99/134/123 100/101/96
f 74/102/97 73/135/124 9/12/12
f 62/48/46 126/136/125 127/103/98
f 36/52/50 100/101/96 101/104/99
f 75/105/100 74/102/97 10/16/16
f 127/106/98 128/137/126 64/61/58
f 101/104/99 102/109/102 38/65/62
f 76/108/101 75/105/100 11/21/20
f 64/61/58 128/137/126 97/97/92
f 102/109/102 103/138/103 39/2/2
f 13/29/28 77/112/104 76/108/101
f 103/110/103 104/113/105 40/7/7
f 14/33/32 78/114/106 77/112/104
f 104/113/105 105/115/107 41/11/11
f 15/37/36 79/139/127 78/114/106
f 105/115/107 106/117/109 42/15/15
f 80/116/108 79/140/127 15/43/36
f 106/117/109 107/119/111 43/20/19
f 81/118/110 80/116/108 16/45/43
f 107/119/111 108/120/112 44/24/23
f 18/57/55 82/141/128 81/118/110
f 108/120/112 109/122/114 45/28/27
f 83/121/113 82/141/128 18/57/55
f 109/122/114 110/124/116 46/32/31
f 84/123/115 83/121/113 19/64/61
f 110/124/116 111/142/117 47/36/35
